<?xml version="1.0" encoding="UTF-8"?>
<svg id="katman_1" xmlns="http://www.w3.org/2000/svg" version="1.1" viewBox="0 0 26 26">
  <!-- Generator: Adobe Illustrator 29.6.1, SVG Export Plug-In . SVG Version: 2.1.1 Build 9)  -->
  <defs>
    <style>
      .st0 {
        fill: #f8cf1c;
      }
    </style>
  </defs>
  <path class="st0" d="M1,11.5c0-1.77-.08-3.64,0-5.4C1.15,2.38,3.16.3,6.9.16c3.74-.14,7.89.11,11.81,0,.79.04,1.56.06,2.3.23,2.07.47,3.53,2.28,3.92,4.32.14.75.1,1.4.12,2.16.1,4.07.11,8.28,0,12.35,0,.25.01.5,0,.74-.08,0-.1-.05-.13-.11-.2-.43-.36-1.01-.55-1.47-.54-1.29-1.36-2.89-2.2-4.01-.07-.09-.13-.25-.26-.23.02-2.28.3-6.07-.78-8.05s-2.81-2.4-4.91-2.49-4.21-.11-6.21-.04-3.66.43-4.83,2.14c-1.01,1.47-1,3.29-1.03,5.02l-3.14.79h-.01Z"/>
  <path class="st0" d="M4.14,10.71c-.03,1.97-.08,4.13.03,6.09.18,3.19,1.6,5.43,5,5.65,2.25.14,4.93.1,7.18,0,1.42-.06,2.63-.23,3.74-1.21,2.06-1.82,1.79-4.59,1.8-7.1.13-.02.2.14.26.23.84,1.12,1.66,2.72,2.2,4.01.19.46.35,1.04.55,1.47.03.06.04.11.13.11-.07,1.59-.4,2.99-1.5,4.19-1.25,1.37-2.67,1.61-4.44,1.7-3.57.17-7.39.07-10.97,0-.58-.01-1.2.04-1.77,0-3.35-.23-5.22-2.53-5.36-5.79-.12-2.77,0-5.75,0-8.54l3.14-.79v-.02Z"/>
  <path class="st0" d="M15.18,8.72c0-.13-.02-.1.09-.11.62-.05.76.02,1.26.33,1.04.64,2.16,1.57,3.04,2.41.19.18.37.44.56.6.05.05.11.08.18.09.01,1.55.06,3.21-.04,4.75-.16,2.57-1.12,3.76-3.74,3.95-1.94.14-4.33.1-6.28.04-1.52-.05-3-.17-3.87-1.58-.66-1.07-.58-2.39-.62-3.61-.05-1.93-.09-3.9,0-5.83l2.56-.53c.65-.09,1.3-.21,1.95-.29.06,0,.15-.04.19.03-3.4,2.4-2.23,8.34,2.01,8.88,5.08.64,7.06-6.66,2.72-9.13h0Z"/>
  <path class="st0" d="M5.76,9.77c.08-1.7.24-3.39,2.01-4.14.75-.32,1.4-.3,2.2-.33,2.11-.09,4.62-.15,6.71,0,4.04.29,3.61,3.64,3.63,6.75-.07,0-.13-.04-.18-.09-.18-.16-.37-.42-.56-.6-.88-.85-2-1.77-3.04-2.41-.5-.31-.64-.38-1.26-.33-.11,0-.09-.02-.09.11-1.47-.84-3.35-.72-4.73.25-.04-.07-.13-.03-.19-.03-.65.07-1.3.2-1.95.29l-2.56.53h0ZM17.67,6.82c-1.57.14-1.03,2.81.48,2.21,1.15-.46.75-2.32-.48-2.21Z"/>
  <path class="st0" d="M12.65,9.89c3.35-.34,4.54,4.22,1.86,5.87-2.01,1.24-4.34-.35-4.45-2.57-.08-1.52,1.01-3.13,2.59-3.29h0Z"/>
</svg>